inDegrees=no
num_controls=7
num_derivatives=13
num_iterations=125
num_multipliers=7
num_parameters=0
num_slacks=7
num_states=26
objective=5.278875
objective_accelerations=0.451240
objective_balance=0.014419
objective_effort=0.384047
objective_height=4.382146
objective_ligament=0.047022
solver_duration=1120.640940
status=Solve_Succeeded
success=true
DataType=double
version=3
OpenSimVersion=4.4-2022-07-23-0e9fedc
endheader
time	/jointset/ground_pelvis/pelvis_tilt/value	/jointset/ground_pelvis/pelvis_tx/value	/jointset/ground_pelvis/pelvis_ty/value	/jointset/hip_r/hip_flexion_r/value	/jointset/hip_r/hip_adduction_r/value	/jointset/hip_r/hip_rotation_r/value	/jointset/back/lumbar_extension/value	/jointset/patellofemoral_r/patellar_flexion_r/value	/jointset/knee_r/knee_flexion_r/value	/jointset/knee_r/knee_adduction_r/value	/jointset/knee_r/knee_rotation_r/value	/jointset/ankle_r/ankle_angle_r/value	/jointset/subtalar_r/subtalar_angle_r/value	/jointset/ground_pelvis/pelvis_tilt/speed	/jointset/ground_pelvis/pelvis_tx/speed	/jointset/ground_pelvis/pelvis_ty/speed	/jointset/hip_r/hip_flexion_r/speed	/jointset/hip_r/hip_adduction_r/speed	/jointset/hip_r/hip_rotation_r/speed	/jointset/back/lumbar_extension/speed	/jointset/patellofemoral_r/patellar_flexion_r/speed	/jointset/knee_r/knee_flexion_r/speed	/jointset/knee_r/knee_adduction_r/speed	/jointset/knee_r/knee_rotation_r/speed	/jointset/ankle_r/ankle_angle_r/speed	/jointset/subtalar_r/subtalar_angle_r/speed	/forceset/tau_hip_flexion_r	/forceset/tau_hip_adduction_r	/forceset/tau_hip_rotation_r	/forceset/tau_knee_flexion_r	/forceset/tau_ankle_angle_r	/forceset/tau_subtalar_angle_r	/forceset/tau_lumbar_extension	lambda_cid13_p0	lambda_cid14_p0	lambda_cid14_p1	lambda_cid14_p2	lambda_cid14_p3	lambda_cid14_p4	lambda_cid14_p5	/jointset/ground_pelvis/pelvis_tilt/accel	/jointset/ground_pelvis/pelvis_tx/accel	/jointset/ground_pelvis/pelvis_ty/accel	/jointset/hip_r/hip_flexion_r/accel	/jointset/hip_r/hip_adduction_r/accel	/jointset/hip_r/hip_rotation_r/accel	/jointset/back/lumbar_extension/accel	/jointset/patellofemoral_r/patellar_flexion_r/accel	/jointset/knee_r/knee_flexion_r/accel	/jointset/knee_r/knee_adduction_r/accel	/jointset/knee_r/knee_rotation_r/accel	/jointset/ankle_r/ankle_angle_r/accel	/jointset/subtalar_r/subtalar_angle_r/accel	gamma_cid13_p0	gamma_cid14_p0	gamma_cid14_p1	gamma_cid14_p2	gamma_cid14_p3	gamma_cid14_p4	gamma_cid14_p5
0	-0.004142418795966658	0.1301071614293137	0.9337591698012361	0.1934208783645156	-0.2237511138967813	-0.2397109893316134	-0.2903791543005566	0.2311793314021585	0.2311793314021609	0.1230420783996726	0.1687683066131986	0.08934340440958972	0.06933389310891175	0	0	0	0	0	0	0	0	0	0	0	0	0	0.1065277458028732	-0.06714532890868669	0.001125015456564322	-0.2605192598184513	0.1542983780836753	-0.07925417985724771	-0.02249240314323548	-29.76661765678928	3.518388323484845	-29.56406310837207	0.2921735184236161	-12.3307284101715	-616.3644648048553	52.50598332019798	-1.230883563761761	-1.345985326475711	-0.6978775009703237	7.948206252921493	0.2159891469565197	1.742011822378182	-5.792080120065505	8.85227351388926	8.852273513889434	-2.798681807766211	0.348708271057753	2.85362410534895	1.087033423163268	3.842262683824584e-08	1.52358172310744e-08	-2.870097553426299e-07	2.275349520604078e-07	2.007747708597394e-08	9.254199845739144e-08	-2.941620010528434e-07
0.01	-0.004198834619560813	0.1300400721928071	0.9337253183240023	0.1938083040946618	-0.2237383827074248	-0.2396243575501765	-0.2906697005942298	0.2316135816978496	0.2316135816978692	0.1229002870038409	0.1687829821094689	0.0894831577394247	0.06938978027629854	-0.0112033508964083	-0.01341547485254968	-0.006747616595142227	0.07716945429134839	0.002530007696251733	0.01724428035097415	-0.05774684781375161	0.08644741231542853	0.08644741231542867	-0.02821186361659421	0.002915968072273978	0.02774358209218862	0.01109913181847042	0.0996371004678538	-0.0740390215390572	0.001915850266528438	-0.2498696509835807	0.1365339941635221	-0.0681614635457506	-0.01715725953606805	-29.7713514466142	-1.656012564024884	-25.26435759681852	-0.83666529069678	-9.033725850719874	-617.8102097643458	60.54516544433238	-1.053089189346202	-1.338968682056063	-0.6597834026411104	7.553961971537223	0.2690740610090038	1.703369715616698	-5.711625473910519	8.480570382328635	8.480570382328548	-2.810497913455988	0.2602153084923901	2.703667350597855	1.109589778255065	5.115081416443529e-08	1.465810200865845e-08	-3.52451538702026e-07	2.830480388719598e-07	2.92134420723947e-08	3.349869422919386e-08	-3.57967124894907e-07
0.02	-0.004364889619476781	0.1298389001842923	0.9336246747480464	0.194957953758575	-0.223700837945105	-0.2393677362503834	-0.2915268430384134	0.232900225175094	0.2329002251750987	0.1224807651167298	0.1688262521331154	0.08989413530807744	0.06955430610528313	-0.02192783526342396	-0.02681655440161134	-0.01335841974445092	0.1524447867545402	0.004962714594522357	0.03399790366834297	-0.1133192301027136	0.1704786363092146	0.1704786363092146	-0.05554609822716838	0.005718905471744671	0.05424484776213529	0.0217277323195776	0.09274645513279446	-0.08093271416952307	0.002706685076511241	-0.2392200421487536	0.1187696102433207	-0.05706874723438384	-0.01182211592888143	-29.78513207752026	-6.761501784634313	-20.96935183647781	-1.945604106265457	-5.711302670332254	-618.1515257261764	68.31242023812922	-1.135110257883167	-1.343106265778188	-0.6705148118036143	7.569381887290195	0.196528987360288	1.643880415657125	-5.357187015107572	8.369035849560769	8.369035849560895	-2.623156006562203	0.3261021364970992	2.605160820900464	0.9929271596905804	6.387900149062474e-08	1.408038678624251e-08	-4.178933220614221e-07	3.385611256835118e-07	3.834940705881545e-08	-2.554460999900373e-08	-4.217722487369706e-07
0.03	-0.004636482490017434	0.1295045831688707	0.933458352552164	0.1968507499293846	-0.2236397072905055	-0.2389463788924898	-0.2929285622396344	0.2350153563011739	0.2350153563011887	0.1217928026186776	0.1688972365604394	0.09056488001756988	0.06982277689059568	-0.03234979344046755	-0.03996456153122544	-0.01990312457954242	0.225749184418378	0.00723882354151207	0.05018589063781275	-0.1666673885634569	0.2521565411508921	0.2521565411508904	-0.08187962926662061	0.008444205633116325	0.07979664349141911	0.03191053623996824	0.08889936158789979	-0.0765151949723084	0.002906527690522436	-0.2362387657389075	0.1157100613405073	-0.05798483624604048	-0.00842449978440799	-29.80740021781706	-7.808819231797226	-21.55379526809366	-1.848763323253364	-5.569641215638902	-618.6969078375347	66.3000337901853	-0.989593084723424	-1.288297157223394	-0.6460194389643517	7.156181914711356	0.2394687461459495	1.593172806166371	-5.270047024835959	8.008497810818056	8.008497810817685	-2.613466295413345	0.2407430621319128	2.51407847802563	1.022548477123016	6.469943563579767e-08	7.224944846914137e-09	-4.058428949349495e-07	3.510312432518042e-07	4.399297500915476e-08	-9.202087103312544e-08	-4.293067520909695e-07
0.04	-0.005011065839755057	0.1290412562380185	0.9332266690840102	0.1994656327185815	-0.2235565521668924	-0.2383657586711773	-0.2948530463781171	0.2379355324775431	0.2379355324775479	0.1208465018815938	0.168994473810627	0.09148792059017509	0.07019139400889379	-0.04252593110183043	-0.05261853748771528	-0.02643067419872118	0.2968621104334548	0.009367608399631192	0.06585047635026979	-0.2178722175553194	0.3314876463664401	0.3314876463664359	-0.107213746017125	0.01096947004146613	0.1047040203840317	0.04175699891674116	0.08505226804296581	-0.07209767577514567	0.003106370304563472	-0.2332574893290951	0.1126505124376648	-0.0589009252577685	-0.00502688363993682	-29.83722506557406	-8.793304973947617	-22.14441212293063	-1.731320354775202	-5.407499783068866	-618.2295825488185	64.03555026229861	-1.08594615474697	-1.244300031153401	-0.6670837686210644	7.131087557538008	0.1670641695861445	1.539200164254606	-4.928521121331391	7.899675924334865	7.899675924334844	-2.423273148772605	0.2860949858927231	2.476277053566122	0.9256589109669779	6.527434909682591e-08	2.400652433195232e-10	-3.921946902726858e-07	3.626138769181737e-07	4.956453477318313e-08	-1.586503889086064e-07	-4.356810364658331e-07
0.05	-0.005486492774656401	0.1284537917534341	0.9329296042346835	0.2027811346324268	-0.223453105745014	-0.2376317275396616	-0.2972785719921601	0.2416374464502043	0.2416374464502058	0.119652377480987	0.1691165704106158	0.09265664841082219	0.07065646187485577	-0.05251692140174097	-0.06479807362771386	-0.03299210087393806	0.3658801536666683	0.01130322404263802	0.08085724237463206	-0.2668820497922813	0.4085008571119934	0.4085008571119916	-0.1314522451920328	0.01340529607388084	0.1289239514560072	0.05120795378951431	0.08056219290877947	-0.07015133967304304	0.003377497791060398	-0.229887651672707	0.1079313596039517	-0.05696996840024945	-0.001215628917410187	-29.87362950729014	-10.17208213831471	-21.51266733409899	-1.871495397864383	-5.028994683902821	-618.0914073658257	64.23586318011294	-0.9492883554538695	-1.193327577435865	-0.6521751665652011	6.73344850507098	0.2040602315233448	1.466707306819008	-4.834585955732972	7.542986932083878	7.542986932084187	-2.400327225008777	0.2157114833636883	2.377217078180776	0.9475029591410739	5.848149533687674e-08	-7.781511845581215e-09	-3.273596819704824e-07	3.409673946205736e-07	4.999459824113838e-08	-2.169086675852285e-07	-3.954940143838484e-07
0.06	-0.00606055219012916	0.1277468224730468	0.932566624508686	0.2067760741383814	-0.223330853172742	-0.2367505702508426	-0.3001836702647409	0.2460976611868043	0.246097661186809	0.1182206303039603	0.1692617022852373	0.09406404873102418	0.07121457712628693	-0.06225242721527369	-0.07651949664829451	-0.03961364953286076	0.4327496288541992	0.01312883848027181	0.09527570781068206	-0.3137867492634079	0.4831477991542787	0.4831477991542787	-0.1547383012932906	0.01557652496419859	0.1524385202946812	0.06036647601062683	0.07607211777467809	-0.06820500357096562	0.003648625277642983	-0.2265178140162834	0.103212206770244	-0.0550390115427609	0.002595625805187088	-29.91529711368191	-11.49327606884529	-20.88435361586352	-1.995687885398701	-4.642330112499533	-617.0411257128894	64.22003055764409	-1.034849257471353	-1.152677407269872	-0.6791081653622264	6.701373948401509	0.1450639285115032	1.421540046592199	-4.507494568164313	7.42642218368129	7.426422183681112	-2.232784534042536	0.2331755574733185	2.335204606905769	0.8671723806347813	5.137841979920221e-08	-1.584673935491589e-08	-2.603694398308079e-07	3.179217916508065e-07	5.020817765452213e-08	-2.748144730324248e-07	-3.533465162405229e-07
0.07000000000000001	-0.006731036990448254	0.1269249178895235	0.9321369576733939	0.2114294690788872	-0.2231911973218503	-0.2357286551213505	-0.3035470780690112	0.2512928438806626	0.251292843880667	0.1165613378403398	0.1694278178565137	0.09570305283491691	0.07186246640969109	-0.0718026535750573	-0.0877852332179689	-0.04633991862922955	0.4975786409426481	0.01478692704724411	0.1089966735948895	-0.3585591925439932	0.5555019680439118	0.5555019680439194	-0.1769679285218398	0.01760169061715099	0.1752466521023277	0.06916925865984599	0.0713723154493032	-0.06550508024203096	0.003885080453542946	-0.2235639444014963	0.09886523045762895	-0.05332914494932251	0.006537778645697054	-29.9608954922486	-12.73049444495993	-20.35195013844615	-2.08791930581852	-4.328244427273705	-616.3487603024701	63.96318188769032	-0.9088184337651258	-1.102083711981914	-0.6724721121066701	6.321060903830436	0.1739012092551601	1.330834428091296	-4.411776350991828	7.081888315862214	7.081888315863365	-2.195217114111068	0.1805096507617948	2.236270536296061	0.8805112316570737	3.768114734623169e-08	-2.512764423194589e-08	-1.495697416898328e-07	2.544811597029514e-07	4.622078757823493e-08	-3.277792088335212e-07	-2.61860506502262e-07
0.08	-0.007495765876074059	0.1259926435542698	0.9316394109810717	0.2167206333532357	-0.223035416607601	-0.2345728384172669	-0.3073481417346831	0.2571999630782779	0.2571999630782829	0.1146843160450835	0.1696128496006192	0.0975666688706065	0.07259711952450562	-0.08110124427617281	-0.09859344699435241	-0.05318962093886469	0.5603034956216427	0.01635381115281687	0.1220560227293595	-0.4013179215440158	0.6255350999038611	0.6255350999038758	-0.1982841676243877	0.0193597595323185	0.1973609066540524	0.07771924229272696	0.06667251312400901	-0.06280515691309221	0.004121535629420733	-0.2206100747866582	0.09451825414503481	-0.05161927835587317	0.01047993148625835	-30.00883451567692	-13.9159839369088	-19.82211795995107	-2.1664583958476	-4.016302957884236	-614.8450254939489	63.5248648754782	-0.9845221257376874	-1.061172848611756	-0.703794808015496	6.280542466510678	0.126823036231556	1.289216716644757	-4.104751712051782	6.962214777744541	6.962214777744277	-2.050106908842192	0.1797562099163176	2.196429155721331	0.8166125773670686	2.355844283420984e-08	-3.448697990689171e-08	-3.594362703264488e-08	1.884343968532843e-07	4.196236721229153e-08	-3.804251659477723e-07	-1.671913669836828e-07
0.09	-0.00835256722178304	0.1249545849909271	0.9310726124897639	0.2226289669380688	-0.2228647866418134	-0.233290016770981	-0.3115664581812444	0.2637960925880656	0.2637960925880647	0.1125993916402642	0.1698146011761529	0.09964793567500239	0.07341557249882848	-0.09021840737362508	-0.1089399831513304	-0.0601974512688839	0.6210153930833298	0.01775860694247049	0.1343912228774895	-0.4420185451057183	0.6933070810211102	0.6933070810211119	-0.2185526329249632	0.02094398238537966	0.2187790369660251	0.08593375376337824	0.06181098874424258	-0.06019284098075183	0.004319321828303133	-0.2181665528304612	0.09049601342442702	-0.04959492668474411	0.01454711445739831	-30.05753552310688	-15.00604819042718	-19.1428182627393	-2.26446108346288	-3.806800264586535	-613.7709774629361	63.40172957715292	-0.8692107350440034	-1.0096432973084	-0.7034601732983161	5.9143424577503	0.1453108222630013	1.188136223168125	-4.003694278819122	6.627127140439091	6.627127140437272	-1.992985802994025	0.1407998552103912	2.097486836143338	0.8182493952192916	5.667681250047063e-09	-4.475027175493515e-08	9.920539156576829e-08	8.508001115684666e-08	3.57307530943139e-08	-4.306293504154021e-07	-3.477481241140168e-08
